<svg xmlns="http://www.w3.org/2000/svg" width="127" height="22" fill="none" viewBox="0 0 127 22"><g fill="#fff" clip-path="url(#a)"><path d="M36.668 15.046h10.084v-2.089h-7.444v-1.895h7.444V8.967h-7.444V7.28h7.444V5.188H36.668v9.858Zm47.775-3.897L78.19 5.188H76.2v9.858h2.637V9.085l6.257 5.96h1.987V5.189h-2.637v5.96ZM62.46 15.046h10.885V5.188H62.46v9.858Zm2.64-7.767h5.608v5.678H65.1V7.279Zm-33.91 3.87-6.255-5.961h-1.99v9.858h2.637V9.085l6.254 5.96h1.993V5.189h-2.64v5.96Zm26.13-5.961-2.704 3.054-2.711-3.055h-3.339l4.379 4.934-4.37 4.925h3.338L54.616 12l2.702 3.046h3.333l-4.37-4.925 4.378-4.934h-3.338Zm33.965 2.388h4.201v7.47h2.394v-7.47h4.202V5.188H91.285v2.388Zm23.057-2.388h-10.154v9.858h2.391v-2.92h5.372v2.92h2.391V5.188Zm-2.391 4.548h-5.372V7.58h5.372v2.157Zm4.498 5.31h10.158v-5.1h-2.394v2.711h-5.37v-5.08h7.764v-2.39h-10.158v9.859Z"/><path fill-rule="evenodd" d="m8.31.883 10.313 2.282V15.07L6.216 21.658v-3.082L0 17.202V5.295L8.31.883Zm6.404 5.882V9.03h-2.067l-.172 2.263h2.236v2.264h-2.408l-.153 2.01H9.885l.152-2.01H7.772l-.153 2.01H5.353l.153-2.01H3.89v-2.264h1.788L5.85 9.03H3.89V6.765h2.135l.153-2.01h2.265l-.153 2.01h2.266l.153-2.01h2.266l-.153 2.01h1.892Zm-6.768 4.527h2.266l.172-2.263H8.118l-.172 2.263Z" clip-rule="evenodd"/></g><defs><clipPath id="a"><path fill="#fff" d="M0 .867h126.597v20.775H0z"/></clipPath></defs></svg>