<svg xmlns="http://www.w3.org/2000/svg" width="127" height="22" fill="none" viewBox="0 0 127 22"><g fill="#2342E5" clip-path="url(#a)"><path d="M36.93 14.538h10.084V12.45h-7.445v-1.895h7.445V8.459h-7.445V6.771h7.445V4.68H36.93v9.858Zm47.767-3.897L78.443 4.68h-1.99v9.858h2.637V8.577l6.257 5.961h1.987V4.68h-2.637v5.961Zm-21.978 3.897h10.884V4.68H62.719v9.858Zm2.64-7.767h5.607v5.678h-5.607V6.771Zm-33.912 3.87L25.193 4.68h-1.99v9.858h2.637V8.577l6.254 5.961h1.993V4.68h-2.64v5.961ZM57.579 4.68l-2.706 3.054-2.71-3.054h-3.339l4.379 4.933-4.37 4.925h3.338l2.703-3.046 2.702 3.046h3.333l-4.37-4.925 4.378-4.933H57.58ZM91.54 7.069h4.2v7.47h2.394v-7.47h4.201v-2.39H91.539v2.39ZM114.6 4.68h-10.155v9.858h2.392v-2.92h5.372v2.92h2.391V4.68Zm-2.391 4.548h-5.372V7.071h5.372v2.157Zm4.498 5.31h10.158v-5.1h-2.394v2.711h-5.37V7.07h7.764V4.68h-10.158v9.86Z"/><path fill-rule="evenodd" d="m8.567.375 10.314 2.283V14.56L6.474 21.15v-3.082L.258 16.694V4.787L8.568.375Zm6.405 5.885v2.263h-2.066l-.172 2.264h2.235v2.263h-2.407l-.153 2.01h-2.266l.153-2.01H8.03l-.153 2.01H5.612l.152-2.01H4.148v-2.263h1.788l.172-2.264h-1.96V6.26h2.135l.153-2.01h2.266l-.153 2.01h2.266l.152-2.01h2.266l-.153 2.01h1.892Zm-6.767 4.527h2.266l.172-2.264H8.377l-.172 2.264Z" clip-rule="evenodd"/></g><defs><clipPath id="a"><path fill="#fff" d="M.258.36h126.597v20.774H.258z"/></clipPath></defs></svg>