<svg xmlns="http://www.w3.org/2000/svg" width="24.931" height="25.031" viewBox="0 0 24.931 25.031">
  <path id="clouds" d="M5.454,22.809A5.734,5.734,0,0,1,4,12.2a8.326,8.326,0,1,1,15.5-5.684,8.339,8.339,0,0,1,6.463,8.2,7.23,7.23,0,0,0-2.27-1.536,6.244,6.244,0,0,0-5.223-4.733l-.79-.1-.1-.789a6.238,6.238,0,1,0-11.2,4.539l1.069,1.5a5.555,5.555,0,0,0-1.645.131,3.642,3.642,0,0,0-.63,6.8A5.767,5.767,0,0,0,5.454,22.809Zm20.5-2.981a5.211,5.211,0,0,0-4.385-5.139C19.613,7.953,9.744,9.826,10.385,16.828a4.168,4.168,0,0,0,1,8.2h9.366A5.21,5.21,0,0,0,25.956,19.828Zm-12.8-1.041-.5-1.39c-1.6-5.12,6.193-6.926,7.012-1.612l.1.926h1.041a3.122,3.122,0,0,1-.063,6.239H11.386a2.081,2.081,0,1,1,0-4.163h1.769Z" transform="translate(-1.025 0)"/>
</svg>
