<svg id="그룹_732" data-name="그룹 732" xmlns="http://www.w3.org/2000/svg" width="97.286" height="97.285" viewBox="0 0 97.286 97.285">
  <defs>
    <style>
      .cls-1 {
        fill: #f09;
      }
    </style>
  </defs>
  <path id="패스_1982" data-name="패스 1982" class="cls-1" d="M313.466,430.1a8.442,8.442,0,1,1-8.444-8.444A8.444,8.444,0,0,1,313.466,430.1Z" transform="translate(-256.379 -381.458)"/>
  <path id="패스_1983" data-name="패스 1983" class="cls-1" d="M299.871,441.962c-.253-2.572-.419-5.14-.631-7.708q-.277-3.858-.476-7.712a54.282,54.282,0,0,1-.317-7.708,31.816,31.816,0,0,1,1.424-7.708.168.168,0,0,1,.212-.106.164.164,0,0,1,.106.106,31.63,31.63,0,0,1,1.424,7.708,54.264,54.264,0,0,1-.317,7.708q-.2,3.858-.472,7.712c-.215,2.568-.381,5.136-.635,7.708a.159.159,0,0,1-.317,0Z" transform="translate(-251.387 -411.012)"/>
  <path id="패스_1984" data-name="패스 1984" class="cls-1" d="M303.6,424.947c2.572-.253,5.14-.419,7.712-.631q3.852-.278,7.708-.476a54.264,54.264,0,0,1,7.708-.317,31.839,31.839,0,0,1,7.712,1.424.166.166,0,0,1,.1.211.159.159,0,0,1-.1.106,31.839,31.839,0,0,1-7.712,1.424,54.246,54.246,0,0,1-7.708-.317q-3.852-.2-7.708-.476c-2.572-.211-5.14-.378-7.712-.631a.155.155,0,0,1-.14-.174A.161.161,0,0,1,303.6,424.947Z" transform="translate(-237.269 -376.463)"/>
  <path id="패스_1985" data-name="패스 1985" class="cls-1" d="M300.188,428.683c.253,2.572.419,5.14.635,7.712q.272,3.852.472,7.708a54.265,54.265,0,0,1,.317,7.708,31.629,31.629,0,0,1-1.424,7.708.167.167,0,0,1-.211.106.183.183,0,0,1-.106-.106,31.815,31.815,0,0,1-1.424-7.708,54.284,54.284,0,0,1,.317-7.708q.2-3.858.476-7.708c.211-2.572.378-5.14.631-7.712a.163.163,0,0,1,.174-.143A.161.161,0,0,1,300.188,428.683Z" transform="translate(-251.387 -362.347)"/>
  <path id="패스_1986" data-name="패스 1986" class="cls-1" d="M316.886,425.265c-2.568.253-5.14.419-7.708.631q-3.858.277-7.712.476a54.226,54.226,0,0,1-7.708.317,31.81,31.81,0,0,1-7.708-1.424.168.168,0,0,1-.106-.212.164.164,0,0,1,.106-.106,31.81,31.81,0,0,1,7.708-1.424,54.244,54.244,0,0,1,7.708.317q3.858.2,7.712.476c2.568.212,5.14.378,7.708.631a.159.159,0,0,1,0,.317Z" transform="translate(-285.936 -376.463)"/>
  <path id="패스_1987" data-name="패스 1987" class="cls-1" d="M301.4,433.8c1.3-1.537,2.636-3.033,3.95-4.551l4.026-4.471a49.165,49.165,0,0,1,4.1-4.4A28.594,28.594,0,0,1,318.4,416.8a.111.111,0,0,1,.151.042.13.13,0,0,1,0,.106,28.816,28.816,0,0,1-3.58,4.921,49.13,49.13,0,0,1-4.4,4.1l-4.471,4.026c-1.518,1.314-3.014,2.655-4.547,3.95a.107.107,0,0,1-.151-.011A.1.1,0,0,1,301.4,433.8Z" transform="translate(-243.076 -394.981)"/>
  <path id="패스_1988" data-name="패스 1988" class="cls-1" d="M301.548,426.474c1.533,1.3,3.029,2.636,4.547,3.95l4.471,4.026a49.133,49.133,0,0,1,4.4,4.1,28.814,28.814,0,0,1,3.58,4.921.11.11,0,0,1-.045.147.106.106,0,0,1-.106,0,28.594,28.594,0,0,1-4.921-3.576,49.181,49.181,0,0,1-4.1-4.4l-4.026-4.471c-1.314-1.518-2.651-3.014-3.95-4.551a.107.107,0,0,1,.011-.147A.109.109,0,0,1,301.548,426.474Z" transform="translate(-243.075 -368.152)"/>
  <path id="패스_1989" data-name="패스 1989" class="cls-1" d="M308.869,426.621c-1.3,1.537-2.632,3.033-3.95,4.551l-4.026,4.471a49.183,49.183,0,0,1-4.1,4.4,28.451,28.451,0,0,1-4.921,3.576.107.107,0,0,1-.147-.042.106.106,0,0,1,0-.106,28.592,28.592,0,0,1,3.576-4.921,49.689,49.689,0,0,1,4.4-4.1l4.475-4.026c1.514-1.314,3.01-2.651,4.547-3.95a.1.1,0,0,1,.147.147Z" transform="translate(-269.905 -368.152)"/>
  <path id="패스_1990" data-name="패스 1990" class="cls-1" d="M308.722,433.945c-1.537-1.3-3.032-2.636-4.547-3.95l-4.475-4.026a49.686,49.686,0,0,1-4.4-4.1,28.594,28.594,0,0,1-3.576-4.921.108.108,0,0,1,.147-.147,28.451,28.451,0,0,1,4.921,3.576,49.166,49.166,0,0,1,4.1,4.4l4.026,4.471c1.318,1.518,2.655,3.014,3.95,4.551a.1.1,0,0,1-.147.147Z" transform="translate(-269.905 -394.981)"/>
</svg>
