<svg xmlns="http://www.w3.org/2000/svg" width="164.576" height="158.297" viewBox="0 0 164.576 158.297">
  <defs>
    <style>
      .cls-1 {
        fill: #12eb77;
      }

      .cls-2 {
        fill: #ff6b24;
      }

      .cls-3 {
        fill: #997cfe;
      }
    </style>
  </defs>
  <g id="그룹_38798" data-name="그룹 38798" transform="translate(-1273.9 -2744.91)">
    <path id="패스_1912" data-name="패스 1912" class="cls-1" d="M812.1,927.721c-2.826-14.408-21-13.531-31.973-12.313-12.113,1.344-23.972,4.874-35.309,9.257-3.931,1.52-9.948,3.161-14.414,5.958a8.128,8.128,0,0,0-7.345,3.061,10.366,10.366,0,0,0-2.382,5.088,161.1,161.1,0,0,0-7.06,20.1,8.4,8.4,0,0,0,9.877,10.517C740.871,965.609,817.842,956.986,812.1,927.721Z" transform="translate(626.07 1830.12)"/>
    <path id="패스_1913" data-name="패스 1913" class="cls-2" d="M717.139,1537.449c.6-6.088-4.513-8.826-9.419-8.258a6.743,6.743,0,0,0-5.53,0c-35.477,14.049-73.093,15.812-110.746,15.762-3.586-3.986-9.647-3.157-13.306.291-4.655,1.627-7.014,8.7-3.615,12.51,1.494,1.674,3.02,3.339,4.561,4.995,13.493,25.2,44.815,48.268,73.436,39.618,29.813-9.01,59.529-30.012,64.2-62.155.05-.173.115-.34.164-.514l-.085-.009C716.9,1538.94,717.064,1538.213,717.139,1537.449Z" transform="translate(170.078 1630.415) rotate(-22)"/>
    <path id="패스_1914" data-name="패스 1914" class="cls-3" d="M716.872,1514.391c-14.164,4.885-29.3,9.335-42.118,17.253a4.941,4.941,0,0,0-1.247,1.119c-3.3.567-6.383,3.681-5.367,7.555,3.222,12.276,9.607,24.081,14.937,35.68a8.229,8.229,0,0,0,2.267,4.587q.48.5.958,1c2.122,2.217,5.173,2.329,7.768,1.23a6.4,6.4,0,0,0,6.457-3.6c5.335-10.383,15.113-17.2,20-28.234a70.226,70.226,0,0,0,5.834-28.542C726.373,1517.9,721.964,1512.635,716.872,1514.391Z" transform="translate(170.078 1630.415) rotate(-22)"/>
  </g>
</svg>
