<svg xmlns="http://www.w3.org/2000/svg" width="154.79" height="100.3" viewBox="0 0 154.79 100.3">
  <defs>
    <style>
      .cls-1 {
        fill: #fd1e27;
      }

      .cls-2 {
        fill: #212c92;
      }
    </style>
  </defs>
  <g id="그룹_38796" data-name="그룹 38796" transform="translate(-1292.402 -1181.381)">
    <path id="패스_1910" data-name="패스 1910" class="cls-1" d="M515.553,981.691c-.244.239-.468.5-.693.752a13.9,13.9,0,0,0-6.695,4.061c-6.9,7.388-5.858,19.942,1.138,26.847,13.439,13.263,38.06,2.3,38.382-16.209C547.97,980.745,528.205,969.239,515.553,981.691Z" transform="translate(788.91 262.482)"/>
    <path id="패스_1911" data-name="패스 1911" class="cls-2" d="M404.651,1056.5c-17.977-11.319-45.167-13.7-57.462,6.9-.274.458-.473.928-.722,1.391-30.2,32.7,34.627,85.858,64.194,50.221C425.055,1097.661,424.6,1069.061,404.651,1056.5Z" transform="translate(1026.543 133.459)"/>
  </g>
</svg>
